<?xml version="1.0" standalone="no"?>
<!DOCTYPE svg PUBLIC "-//W3C//DTD SVG 20010904//EN"
 "http://www.w3.org/TR/2001/REC-SVG-20010904/DTD/svg10.dtd">
<svg version="1.0" xmlns="http://www.w3.org/2000/svg"
 width="2000.000000pt" height="1414.000000pt" viewBox="0 0 2000.000000 1414.000000"
 preserveAspectRatio="xMidYMid meet">

<g transform="translate(0.000000,1414.000000) scale(0.100000,-0.100000)"
fill="#000000" stroke="none">
<path d="M15112 13354 c-910 -147 -2294 -1345 -3389 -2934 -807 -1171 -1346
-2407 -1507 -3460 -14 -91 -29 -205 -32 -253 -4 -48 -10 -90 -14 -92 -4 -2
-12 40 -19 93 -17 128 -48 296 -67 353 -8 26 -16 83 -18 127 -4 109 -40 186
-103 216 -49 24 -48 22 -33 177 49 489 196 915 402 1159 21 26 89 90 151 143
163 140 226 231 179 256 -33 18 -61 13 -124 -21 -318 -169 -575 -761 -675
-1554 l-17 -132 -75 -6 c-41 -4 -108 -14 -148 -22 -41 -9 -76 -14 -77 -12 -2
1 -66 127 -143 278 -364 713 -634 1123 -817 1242 -72 47 -109 48 -114 5 -5
-41 38 -107 114 -174 272 -238 396 -403 640 -848 93 -171 253 -499 254 -520 0
-6 -20 -21 -44 -33 -24 -13 -54 -34 -66 -47 -21 -23 -21 -23 -5 -111 9 -49 27
-132 40 -184 13 -52 23 -95 22 -96 -1 -2 -42 65 -91 146 -734 1231 -2015 2599
-3307 3533 -1025 740 -1995 1175 -2803 1258 -172 17 -509 7 -652 -20 -144 -27
-276 -66 -339 -99 -116 -62 -205 -186 -242 -337 -21 -86 -23 -331 -4 -450 36
-233 141 -571 240 -780 32 -66 126 -233 209 -372 278 -462 301 -522 357 -941
42 -314 45 -326 172 -656 108 -281 152 -385 221 -520 89 -176 178 -252 482
-416 230 -123 286 -166 520 -395 220 -215 316 -298 446 -386 41 -27 74 -54 74
-58 0 -17 -94 -93 -207 -167 -161 -107 -213 -174 -252 -330 -65 -263 -54 -664
27 -984 61 -237 150 -433 362 -795 214 -366 276 -499 406 -870 63 -181 142
-354 204 -445 60 -89 143 -165 293 -272 200 -141 260 -204 395 -408 267 -407
466 -625 708 -776 87 -54 581 -284 799 -371 190 -76 259 -100 473 -163 187
-55 300 -80 366 -80 103 0 207 92 335 297 41 65 136 210 211 323 247 370 375
590 483 825 157 345 238 633 287 1024 40 320 44 422 45 1056 l0 620 80 155 80
155 6 -300 c21 -940 151 -1632 364 -1930 52 -74 92 -101 167 -116 78 -16 118
4 152 75 41 83 56 202 56 442 0 383 -55 906 -176 1672 -19 123 -34 228 -32
233 7 20 389 -222 439 -277 18 -21 56 -118 129 -329 227 -664 400 -1061 601
-1382 291 -464 681 -815 1314 -1183 88 -51 219 -128 290 -170 311 -185 461
-233 617 -196 115 27 224 81 688 341 316 177 610 370 1101 721 324 233 438
327 542 452 204 245 307 475 402 892 47 205 82 275 231 461 134 167 175 233
212 338 24 70 26 89 26 226 -1 122 -7 185 -33 340 -46 269 -52 486 -21 840 29
335 25 574 -13 735 -81 340 -267 680 -494 902 -125 123 -217 163 -452 199
-131 19 -252 47 -285 66 -12 7 -5 20 41 78 97 120 162 229 265 443 156 326
150 317 345 524 138 147 200 227 238 311 48 104 45 261 -16 714 -34 258 -49
312 -160 570 -44 101 -91 224 -105 271 -35 118 -41 274 -20 497 36 391 33 490
-24 777 -95 475 -273 744 -570 865 -138 55 -350 75 -518 47z m105 -228 c39
-42 42 -80 14 -141 -32 -71 -80 -96 -130 -71 -31 17 -41 36 -47 95 -2 20 -6
54 -9 76 -5 33 -2 44 16 64 19 20 29 23 72 18 42 -4 56 -10 84 -41z m269 -392
c29 -28 29 -54 0 -134 -21 -56 -39 -70 -88 -70 -51 0 -78 27 -78 79 0 119 99
193 166 125z m-418 -350 c26 -18 52 -65 52 -93 0 -59 -101 -103 -148 -65 -46
38 -43 135 5 163 26 15 65 13 91 -5z m823 -103 c18 -14 24 -29 24 -61 0 -51
-30 -80 -81 -80 -46 0 -74 29 -74 77 0 72 76 109 131 64z m-1683 -417 c32 -22
29 -73 -10 -153 -46 -92 -145 -193 -286 -290 -64 -45 -175 -135 -247 -202
-148 -137 -225 -192 -298 -214 -69 -20 -74 -19 -82 14 -12 55 19 98 218 300
110 112 231 248 284 317 105 138 175 206 236 227 57 21 156 21 185 1z m873
-22 c98 -60 76 -198 -52 -316 -79 -74 -165 -128 -384 -243 -223 -117 -322
-177 -465 -282 -58 -43 -152 -108 -210 -145 -58 -38 -148 -99 -200 -136 -113
-80 -145 -97 -198 -106 -88 -14 -172 49 -172 130 0 87 79 166 331 327 110 71
298 225 517 426 73 68 159 138 190 156 31 19 82 52 112 75 66 51 193 118 246
131 22 6 86 9 144 8 89 -2 110 -6 141 -25z m-1483 -109 c37 -23 63 -73 56
-108 -19 -88 -93 -170 -254 -283 -58 -40 -158 -115 -224 -167 -178 -141 -270
-183 -296 -136 -16 31 -12 62 16 117 42 83 109 150 233 234 129 86 161 117
219 217 81 138 164 180 250 126z m-10879 -128 c27 -24 55 -81 49 -101 -1 -5 8
-31 21 -57 27 -56 20 -90 -24 -107 -35 -13 -71 2 -123 53 -54 52 -72 85 -72
132 0 46 13 71 48 89 39 22 67 19 101 -9z m12972 -35 c50 -15 75 -29 98 -56
44 -49 42 -87 -7 -133 -21 -20 -43 -48 -50 -64 -16 -37 -52 -53 -94 -41 -40
12 -57 45 -96 185 -15 53 -15 58 2 83 15 24 45 44 70 45 5 1 39 -8 77 -19z
m-2707 -112 c18 -30 -38 -130 -154 -273 -31 -38 -84 -108 -117 -155 -136 -192
-237 -259 -328 -218 -38 17 -33 56 16 120 76 98 350 360 447 428 127 88 130
90 115 96 -16 7 -17 27 -1 22 6 -2 16 -11 22 -20z m2238 -209 c57 -15 88 -47
95 -97 16 -122 -89 -228 -362 -365 -182 -91 -293 -129 -378 -131 -61 -1 -71 2
-88 23 -10 13 -19 39 -19 58 0 68 40 114 158 180 47 27 104 75 192 164 69 69
136 132 150 139 72 38 178 50 252 29z m-12540 -176 c83 -56 124 -164 76 -197
-46 -33 -80 -18 -156 67 -55 60 -67 104 -39 139 26 34 60 31 119 -9z m536
-243 c34 -21 71 -87 72 -127 0 -12 -12 -31 -27 -43 -40 -31 -88 -21 -132 26
-31 33 -33 40 -28 87 7 77 49 97 115 57z m12942 -195 c57 -60 62 -69 56 -98
-11 -60 -84 -97 -127 -64 -8 7 -37 36 -62 65 -34 38 -47 61 -47 83 0 42 39 79
83 79 29 0 44 -10 97 -65z m-3341 0 c31 -15 41 -34 40 -68 0 -34 -229 -350
-260 -361 -53 -18 -119 20 -119 70 0 15 23 58 58 107 32 45 84 119 116 163 73
104 105 121 165 89z m-7901 -84 c20 -11 77 -54 126 -96 98 -84 156 -117 290
-164 128 -45 216 -95 291 -163 74 -68 100 -109 91 -144 -12 -47 -104 -26 -311
68 -60 28 -189 83 -285 122 -201 81 -259 116 -330 193 -45 49 -50 59 -50 101
0 91 85 131 178 83z m-506 -28 c35 -15 110 -62 168 -103 175 -126 222 -156
463 -296 237 -137 309 -193 323 -249 9 -37 -9 -47 -71 -39 -82 11 -180 51
-365 150 -96 51 -230 114 -297 138 -206 76 -316 141 -420 248 -107 109 -104
138 17 182 32 12 122 -4 182 -31z m-1824 -83 c28 -41 28 -84 1 -111 -41 -41
-118 -1 -140 71 -29 97 79 128 139 40z m9486 50 c15 -5 33 -25 42 -43 29 -60
12 -78 -195 -220 -64 -44 -107 -48 -140 -13 -17 18 -22 33 -19 62 3 35 10 44
73 92 102 77 185 132 200 132 8 0 25 -4 39 -10z m-6618 -88 c-5 -15 4 -21 51
-36 169 -52 604 -294 725 -404 45 -40 48 -63 12 -91 -58 -46 -165 -9 -324 114
-47 36 -146 109 -220 164 -203 148 -285 229 -265 261 11 17 27 11 21 -8z
m9693 -70 c70 -21 124 -72 139 -134 29 -115 -73 -300 -246 -444 -76 -64 -192
-123 -527 -267 -121 -52 -363 -160 -537 -241 -411 -189 -486 -215 -1038 -360
-157 -41 -321 -86 -365 -100 -97 -31 -95 -31 -95 -3 0 53 148 275 281 423 272
302 637 543 1439 951 192 97 335 142 570 177 179 27 285 26 379 -2z m-11314
-30 c50 -17 135 -47 190 -65 55 -19 206 -88 335 -153 324 -164 499 -243 674
-304 174 -60 223 -83 293 -139 89 -70 106 -165 42 -227 -27 -26 -37 -29 -92
-28 -49 0 -84 9 -167 43 -58 24 -157 61 -220 83 -63 22 -196 71 -295 110 -204
79 -338 120 -575 173 -302 68 -461 132 -558 225 -136 129 -119 246 43 300 89
30 211 23 330 -18z m9932 -67 c21 -9 45 -23 55 -32 15 -14 16 -19 4 -42 -13
-25 -63 -57 -246 -160 -43 -24 -130 -90 -200 -153 -185 -163 -267 -218 -328
-218 -46 0 -54 18 -42 92 28 180 112 312 255 403 144 92 407 150 502 110z
m2327 -226 c24 -19 26 -26 26 -94 0 -93 -18 -120 -79 -120 -69 0 -86 29 -83
138 3 85 74 125 136 76z m-3235 -140 c39 -14 48 -44 32 -113 -17 -75 -123
-288 -244 -488 -58 -95 -157 -263 -220 -374 -240 -420 -340 -539 -807 -954
-283 -252 -391 -362 -871 -890 -273 -301 -407 -436 -420 -423 -6 6 -13 37 -16
69 -7 73 22 164 101 321 30 59 89 191 132 293 85 203 268 570 423 849 97 173
395 667 508 840 242 372 466 583 788 742 207 102 492 163 594 128z m-9725 -70
c36 -29 51 -61 71 -154 10 -44 19 -89 22 -100 6 -26 -32 -75 -58 -75 -25 0
-57 16 -87 44 -13 11 -42 30 -65 41 -58 28 -82 72 -71 132 8 40 17 53 62 90
59 48 87 53 126 22z m765 -213 c47 -24 127 -67 176 -95 52 -30 138 -66 203
-87 99 -31 119 -41 157 -79 46 -46 67 -104 48 -134 -32 -51 -165 -59 -368 -22
-278 51 -420 105 -509 194 -119 119 -93 223 69 268 61 17 134 2 224 -45z
m2166 8 c48 -32 306 -244 322 -264 20 -25 15 -69 -12 -95 -44 -45 -55 -40
-268 131 -72 59 -142 118 -154 131 -29 30 -29 62 -2 97 27 34 65 34 114 0z
m9461 -44 c139 -48 199 -111 199 -210 0 -117 -129 -316 -340 -525 -169 -169
-250 -229 -410 -306 -181 -87 -264 -119 -637 -245 -548 -186 -738 -279 -1460
-715 -734 -444 -868 -512 -1308 -664 -246 -86 -405 -152 -634 -267 -187 -94
-253 -121 -324 -133 l-42 -7 0 49 c0 103 72 193 265 334 141 103 213 180 410
443 177 237 349 444 576 692 296 325 542 526 783 640 53 25 290 109 528 188
481 159 560 189 963 366 546 239 824 332 1110 369 44 6 94 13 110 15 54 7 152
-4 211 -24z m-8565 -36 c142 -57 161 -71 174 -125 8 -34 -30 -82 -66 -81 -41
0 -282 101 -306 128 -43 47 -19 134 37 134 11 0 83 -25 161 -56z m-1256 -529
c193 -40 370 -185 470 -384 l27 -55 -22 -18 c-41 -33 -138 -2 -373 121 -141
74 -190 92 -401 152 -82 24 -136 58 -136 88 0 9 16 32 35 51 26 25 49 36 97
46 87 17 219 16 303 -1z m1063 -145 c358 -75 658 -245 1038 -587 571 -512
1047 -981 1324 -1303 69 -80 175 -197 237 -262 119 -122 173 -209 173 -275 l0
-32 -42 15 c-72 25 -325 166 -698 389 -480 287 -461 276 -812 456 -581 298
-613 321 -1149 839 -496 478 -616 610 -622 684 -5 65 91 94 313 95 108 1 169
-4 238 -19z m-1918 -65 c115 -19 664 -159 889 -226 371 -112 705 -270 937
-445 149 -112 304 -260 304 -291 0 -13 -930 -8 -1035 6 -49 6 -234 38 -410 71
-176 33 -439 78 -585 100 -146 23 -293 48 -328 56 -208 47 -472 228 -548 376
-60 116 -27 223 86 280 148 74 472 108 690 73z m-1626 -45 c44 -39 49 -63 32
-145 -22 -104 -59 -128 -126 -82 -46 31 -55 65 -40 150 19 109 66 136 134 77z
m12333 -152 c32 -30 31 -81 -2 -113 -13 -14 -31 -25 -40 -25 -9 0 -38 -22 -65
-50 -58 -60 -87 -64 -131 -21 -45 45 -37 93 27 156 71 71 166 95 211 53z
m-513 -338 c35 -13 96 -112 96 -154 0 -26 -8 -41 -31 -60 -55 -47 -94 -27
-154 76 -34 60 -28 100 18 129 37 22 38 22 71 9z m-11469 -179 c31 -19 95
-132 95 -167 0 -35 -29 -64 -63 -64 -48 0 -75 25 -112 102 -37 77 -36 114 6
135 32 17 39 16 74 -6z m10856 -20 c198 -50 313 -105 357 -171 51 -75 -1 -140
-182 -229 -259 -127 -698 -284 -1052 -375 -157 -41 -775 -235 -903 -284 -11
-4 -13 6 -9 51 17 206 309 483 691 656 62 28 227 108 367 179 405 203 513 229
731 173z m1697 -23 c12 -13 46 -48 77 -79 49 -51 55 -61 55 -99 0 -36 -6 -48
-39 -81 -62 -63 -110 -48 -178 55 -30 44 -43 76 -47 114 -6 49 -5 55 23 82 36
37 79 40 109 8z m-11173 -148 c148 -13 273 -30 575 -80 393 -65 521 -79 1004
-105 168 -10 317 -23 375 -34 284 -55 588 -208 1121 -564 212 -141 280 -190
560 -402 168 -127 274 -186 430 -240 160 -56 217 -84 269 -130 38 -34 89 -131
76 -143 -19 -19 -200 -13 -351 12 -223 36 -400 54 -609 61 -432 15 -613 50
-1245 245 -727 224 -965 278 -1340 300 -540 32 -622 41 -805 86 -130 31 -370
149 -560 275 -158 105 -307 244 -343 320 -69 146 33 312 221 359 182 46 390
59 622 40z m10849 -133 c50 -28 74 -61 82 -114 6 -36 3 -45 -21 -68 -23 -24
-32 -27 -76 -23 -107 11 -168 131 -100 199 35 35 63 36 115 6z m-649 -182
c213 -54 382 -224 393 -395 10 -159 -134 -227 -568 -270 -137 -14 -223 -31
-785 -160 -236 -55 -515 -118 -620 -140 l-190 -42 -170 5 c-345 10 -615 87
-698 198 -15 22 -17 30 -8 48 26 49 132 82 436 136 204 36 220 41 540 157 792
288 1225 437 1341 462 92 19 254 20 329 1z m1309 -96 c14 -11 26 -26 26 -32 0
-7 13 -19 29 -29 37 -20 60 -65 68 -128 5 -45 3 -51 -25 -79 -42 -43 -72 -40
-129 12 -51 46 -103 146 -103 197 0 67 79 102 134 59z m-409 -364 c49 -48 24
-128 -42 -141 -27 -5 -37 -1 -63 24 -20 21 -30 40 -30 62 0 41 39 80 80 80 19
0 40 -9 55 -25z m-3676 -24 c18 -12 6 -30 -47 -74 -138 -115 -434 -245 -770
-338 -130 -36 -188 -61 -507 -214 -400 -192 -535 -247 -610 -249 -48 -1 -50 0
-53 27 -9 77 213 195 678 360 85 31 238 89 340 130 102 42 248 99 325 128 77
29 201 84 275 123 74 39 162 80 195 93 61 22 149 30 174 14z m4323 -201 c22
-23 29 -37 24 -53 -3 -12 -6 -42 -6 -65 0 -37 -6 -50 -34 -78 -31 -31 -40 -34
-91 -34 -68 0 -88 10 -105 49 -17 43 -5 79 34 102 22 13 36 30 39 49 7 31 46
59 85 60 13 0 37 -13 54 -30z m-1007 -75 c101 -21 188 -68 254 -135 221 -225
176 -596 -82 -676 -72 -22 -287 -29 -443 -15 -180 17 -694 77 -909 107 -649
90 -1056 190 -1080 264 -9 27 -1 37 55 65 99 50 300 93 700 150 282 40 710
120 1040 195 118 27 229 50 245 53 66 9 154 6 220 -8z m-10897 -29 c68 -34
102 -77 102 -127 0 -26 -7 -46 -21 -60 -23 -23 -49 -19 -92 17 -16 13 -40 24
-53 24 -93 0 -160 104 -103 161 18 18 29 21 69 16 27 -3 71 -17 98 -31z m1474
-160 c62 -14 174 -38 248 -54 74 -16 176 -37 225 -46 174 -33 383 -116 515
-206 78 -53 176 -159 205 -221 13 -29 23 -54 22 -56 -2 -1 -97 2 -212 7 -116
6 -392 9 -615 8 -405 -2 -518 3 -765 38 -248 35 -342 74 -366 153 -16 52 7
118 66 193 55 71 165 163 225 191 88 40 246 37 452 -7z m6078 29 c179 -27 406
-101 670 -216 374 -164 574 -326 557 -450 -11 -86 -86 -136 -249 -166 -79 -15
-152 -18 -488 -18 -460 0 -379 -9 -1312 154 -309 55 -616 108 -680 118 -65 10
-118 20 -118 24 0 10 129 115 205 168 248 171 627 321 970 382 125 22 318 24
445 4z m-7098 -66 c29 -15 48 -70 48 -136 0 -108 -46 -143 -111 -85 -31 28
-34 35 -37 106 -3 58 0 82 12 101 18 27 53 33 88 14z m11387 -304 c36 -18 41
-32 41 -111 0 -56 -4 -68 -25 -89 -30 -31 -83 -33 -116 -6 -21 17 -24 27 -24
96 0 72 2 78 28 101 32 28 56 30 96 9z m-8655 -71 c61 -13 133 -27 160 -29
176 -18 631 -47 856 -55 282 -10 384 -20 493 -46 106 -26 160 -85 105 -115
-53 -28 -296 -10 -713 53 -196 30 -225 32 -440 29 -388 -4 -650 37 -767 120
-30 22 -30 22 -10 41 42 43 129 43 316 2z m2692 -46 c-15 -76 -144 -160 -248
-162 -91 -2 -91 13 4 76 89 60 130 83 187 103 58 22 64 19 57 -17z m-6148
-114 c13 -9 35 -41 48 -72 23 -50 25 -67 21 -135 -4 -64 -10 -83 -28 -103 -26
-28 -43 -29 -86 -6 -54 29 -78 69 -77 127 2 74 20 173 34 190 16 20 60 19 88
-1z m11616 -85 c21 -17 26 -29 26 -68 0 -25 -7 -56 -15 -68 -21 -29 -66 -38
-103 -19 -35 18 -42 33 -42 87 0 76 75 114 134 68z m-9784 -29 c157 -11 384
-27 504 -36 l219 -17 171 24 c211 29 340 32 379 6 102 -66 -89 -284 -373 -427
-161 -81 -166 -82 -805 -140 -510 -46 -530 -49 -700 -91 -371 -93 -499 -32
-513 242 -11 229 103 395 311 454 68 20 406 13 807 -15z m2458 -15 c184 -26
349 -71 482 -131 l61 -27 -78 -45 c-157 -90 -497 -294 -841 -506 -195 -119
-390 -236 -435 -261 -102 -54 -424 -185 -543 -221 -117 -35 -230 -38 -270 -8
-49 36 -67 70 -72 133 -12 162 160 444 444 728 238 238 430 327 774 357 84 7
375 -4 478 -19z m2254 0 c303 -53 880 -285 1218 -490 423 -256 1065 -764 1477
-1168 370 -363 564 -636 624 -877 52 -205 -27 -386 -197 -450 -50 -19 -72 -21
-144 -17 -99 6 -163 25 -279 84 -234 120 -358 241 -1086 1068 -434 492 -493
548 -925 875 -118 89 -267 206 -330 259 -63 53 -171 137 -240 186 -319 228
-450 358 -450 446 0 45 23 65 98 85 64 17 133 17 234 -1z m-6158 -46 c38 -30
56 -71 56 -128 0 -94 -78 -144 -135 -87 -30 30 -49 98 -40 144 7 37 54 92 78
92 8 0 26 -9 41 -21z m4643 -14 c100 -21 156 -39 160 -51 2 -6 -16 -19 -39
-30 -53 -24 -149 -24 -212 0 -42 16 -96 65 -96 87 0 14 111 11 187 -6z m779
-43 c140 -118 254 -282 350 -505 28 -67 50 -124 49 -126 -4 -4 -395 196 -408
209 -9 8 -61 315 -71 418 -3 34 -2 62 3 62 4 0 39 -26 77 -58z m4405 38 c568
-32 743 -60 911 -147 168 -87 271 -277 271 -498 0 -115 -25 -184 -93 -258 -83
-91 -201 -134 -340 -124 -152 11 -569 184 -1025 425 -522 276 -801 480 -745
546 16 21 92 44 175 55 100 12 628 13 846 1z m1964 -182 c20 -18 28 -38 35
-83 5 -33 23 -104 39 -158 33 -106 31 -132 -11 -161 -12 -9 -36 -16 -52 -16
-36 0 -84 50 -164 169 -77 115 -76 135 6 212 70 66 103 74 147 37z m-3926 -33
c228 -34 545 -127 795 -234 202 -87 446 -219 821 -443 575 -345 632 -392 741
-613 181 -366 57 -569 -318 -520 -226 30 -262 48 -586 290 -826 618 -1642
1369 -1642 1512 0 20 5 23 41 23 23 0 89 -7 148 -15z m-3364 -100 c17 -16 25
-35 25 -57 -1 -83 -87 -258 -248 -503 -47 -71 -116 -188 -155 -260 -38 -71
-127 -231 -197 -355 -272 -479 -306 -567 -536 -1380 -52 -184 -124 -437 -159
-561 -95 -336 -173 -505 -285 -620 -75 -76 -127 -97 -194 -78 -94 26 -181 158
-212 324 -24 129 -15 388 20 590 112 645 439 1485 775 1990 182 275 508 614
766 800 138 99 218 132 323 134 44 1 57 -3 77 -24z m1426 -5 c70 -46 195 -173
304 -309 190 -237 387 -426 587 -564 54 -37 132 -95 175 -129 69 -55 1200
-1159 1456 -1422 225 -230 321 -410 287 -535 -24 -89 -125 -161 -284 -201 -94
-24 -128 -24 -221 -5 -155 32 -311 147 -400 295 -112 188 -334 540 -458 725
-267 401 -399 559 -773 924 -478 465 -594 620 -688 911 -32 97 -76 286 -76
324 0 25 42 19 91 -14z m-1050 -112 l12 -116 -55 -84 c-31 -46 -65 -99 -77
-118 l-22 -35 6 65 c15 158 93 437 115 413 5 -4 14 -61 21 -125z m-5268 -29
c36 -16 56 -60 69 -146 9 -68 8 -85 -8 -133 -17 -50 -22 -55 -52 -58 -48 -5
-77 19 -102 85 -22 59 -22 71 -1 187 12 68 42 89 94 65z m5005 -214 c22 -121
26 -406 8 -515 -31 -193 -69 -299 -261 -730 -142 -319 -219 -510 -268 -667
-72 -226 -161 -666 -241 -1178 -42 -266 -70 -367 -124 -450 -100 -152 -225
-214 -370 -184 -45 9 -66 20 -99 53 -60 60 -78 128 -70 266 8 137 37 251 153
610 90 275 418 1170 499 1360 49 114 130 266 197 370 113 173 217 405 319 712
66 196 129 335 180 393 46 52 61 44 77 -40z m-2477 55 c20 -6 42 -17 49 -25
66 -80 -266 -350 -1069 -869 -414 -268 -527 -290 -681 -134 -95 97 -160 267
-160 423 0 134 35 228 112 301 81 79 136 96 361 119 247 24 625 80 812 120
313 67 495 87 576 65z m-2026 -86 c47 -51 42 -127 -9 -140 -36 -9 -66 12 -87
61 -27 61 -9 105 43 105 18 0 38 -9 53 -26z m11562 -170 c35 -23 40 -61 13
-109 -12 -22 -42 -77 -67 -122 -24 -44 -50 -87 -59 -94 -35 -29 -105 -3 -124
46 -9 24 23 233 40 265 6 12 21 25 33 30 31 12 138 2 164 -16z m-8612 -243
c31 -143 -241 -965 -600 -1811 -152 -358 -194 -438 -265 -503 -120 -112 -213
-143 -287 -97 -90 55 -153 255 -153 489 0 146 14 217 67 351 46 117 281 587
381 760 194 339 489 652 757 805 43 24 82 42 86 39 4 -2 10 -17 14 -33z
m-3345 2 c14 -9 31 -25 38 -35 7 -10 23 -18 36 -18 47 0 98 -88 76 -130 -13
-24 -67 -50 -104 -50 -35 0 -86 48 -118 112 -34 67 -36 102 -6 122 29 20 48
20 78 -1z m2464 -169 c23 -23 20 -84 -10 -172 -104 -313 -574 -1082 -770
-1261 -149 -136 -351 -63 -459 166 -40 82 -80 226 -90 318 -15 138 34 274 137
382 75 78 151 131 353 245 451 257 779 382 839 322z m4156 -149 c210 -229 624
-721 873 -1037 247 -314 431 -598 414 -642 -8 -21 -41 -20 -118 4 -72 22 -136
63 -226 143 -34 30 -139 120 -235 199 -95 80 -218 192 -273 250 -91 94 -110
122 -207 294 -248 439 -376 762 -339 857 6 16 15 27 20 25 5 -2 46 -43 91 -93z
m4988 -103 c37 -41 72 -141 72 -206 0 -57 -41 -137 -88 -169 -59 -41 -130 -69
-155 -61 -54 16 -87 76 -87 156 0 66 18 105 72 155 32 29 43 45 37 55 -16 24
-9 64 14 85 45 42 88 38 135 -15z m-11280 -168 c28 -20 82 -125 82 -160 0 -55
-52 -81 -98 -48 -28 20 -82 125 -82 160 0 55 52 81 98 48z m4558 -39 c45 -108
40 -353 -16 -738 -57 -392 -70 -435 -227 -737 -53 -102 -128 -247 -166 -324
-70 -140 -131 -222 -189 -252 -44 -23 -48 -18 -48 49 0 115 73 418 211 876
164 543 380 1161 406 1161 8 0 21 -16 29 -35z m-4042 -116 c14 -17 29 -41 32
-54 26 -105 -75 -136 -121 -38 -34 70 -18 123 35 123 19 0 37 -10 54 -31z
m9976 -94 c20 -10 31 -25 35 -48 12 -64 -26 -115 -93 -124 -34 -5 -45 -1 -66
20 -39 39 -35 80 13 128 42 42 66 47 111 24z m-579 -288 c25 -19 59 -79 59
-105 0 -26 -24 -74 -54 -109 -13 -15 -31 -23 -52 -23 -20 0 -43 9 -59 23 -23
20 -26 30 -28 99 -2 69 0 79 22 102 27 29 83 35 112 13z m988 -22 c50 -25 52
-56 15 -170 -42 -129 -78 -175 -139 -175 -21 0 -40 9 -55 25 -20 22 -22 30
-16 77 4 29 11 84 16 121 9 79 31 110 89 125 51 14 59 14 90 -3z m-10635 -48
c94 -51 98 -60 97 -222 -1 -158 -10 -188 -57 -193 -56 -6 -73 20 -109 169 -17
74 -37 144 -44 156 -26 49 -3 123 38 123 9 0 43 -15 75 -33z m405 -584 c30
-25 151 -232 151 -259 0 -33 -42 -79 -62 -68 -42 24 -217 203 -224 228 -9 39
8 70 53 94 47 26 56 26 82 5z m9310 -122 c35 -25 60 -61 67 -99 6 -29 2 -37
-33 -71 -49 -46 -120 -80 -183 -88 -43 -5 -51 -3 -74 20 -31 31 -35 86 -10
132 9 17 25 47 35 67 29 56 54 70 119 62 30 -3 66 -13 79 -23z m-813 -95 c21
-18 28 -32 28 -61 0 -43 -39 -85 -79 -85 -40 0 -79 42 -79 85 0 43 39 85 79
85 13 0 36 -11 51 -24z m108 -309 c82 -81 87 -141 19 -224 -48 -58 -62 -64
-129 -57 -85 10 -96 25 -90 127 7 139 44 207 112 207 27 0 44 -10 88 -53z
m-8136 3 c11 -11 24 -36 28 -55 4 -21 12 -35 21 -35 29 0 112 -91 133 -146 22
-61 26 -144 8 -162 -32 -32 -137 -2 -189 55 -75 80 -124 282 -83 341 19 27 53
28 82 2z m658 -215 c20 -31 22 -88 4 -110 -39 -47 -120 18 -120 96 0 52 30 75
71 53 16 -8 36 -25 45 -39z m409 -59 c43 -44 69 -173 42 -210 -22 -30 -57 -16
-94 38 -27 40 -33 57 -33 102 0 41 5 59 20 74 26 26 36 25 65 -4z m6404 -37
c47 -17 94 -40 104 -51 33 -39 13 -109 -38 -128 -28 -11 -189 40 -230 71 -53
42 -19 139 49 139 16 0 68 -14 115 -31z m-6946 -286 c30 -34 111 -215 111
-250 0 -34 -15 -53 -43 -53 -22 0 -92 78 -138 156 -46 75 -54 121 -27 148 21
21 77 20 97 -1z m1232 -239 c21 -8 45 -56 45 -89 0 -80 -73 -97 -99 -24 -16
47 -14 76 9 99 22 22 22 22 45 14z m-426 -184 c68 -80 86 -143 55 -188 -11
-16 -25 -22 -55 -22 -45 0 -114 31 -128 58 -16 31 -22 97 -11 127 12 34 57 75
81 75 9 0 35 -22 58 -50z m479 -106 c12 -8 22 -21 22 -28 0 -8 6 -19 14 -25
15 -13 66 -156 66 -186 0 -21 -56 -75 -79 -75 -25 0 -92 60 -107 96 -18 44
-18 111 1 164 25 72 42 83 83 54z m531 -110 c36 -46 28 -84 -34 -157 -31 -36
-63 -68 -72 -71 -23 -9 -61 30 -69 70 -7 39 8 68 74 138 49 53 72 57 101 20z"/>
</g>
</svg>
