<?xml version="1.0" standalone="no"?>
<!DOCTYPE svg PUBLIC "-//W3C//DTD SVG 20010904//EN"
 "http://www.w3.org/TR/2001/REC-SVG-20010904/DTD/svg10.dtd">
<svg version="1.0" xmlns="http://www.w3.org/2000/svg"
 width="2000.000000pt" height="1414.000000pt" viewBox="0 0 2000.000000 1414.000000"
 preserveAspectRatio="xMidYMid meet">

<g transform="translate(0.000000,1414.000000) scale(0.100000,-0.100000)"
fill="#000000" stroke="none">
<path d="M0 7070 l0 -7070 10000 0 10000 0 0 7070 0 7070 -10000 0 -10000 0 0
-7070z m15525 6270 c400 -103 620 -440 709 -1088 20 -144 20 -272 0 -486 -10
-94 -17 -243 -18 -331 -1 -182 12 -247 83 -416 21 -52 62 -148 90 -215 27 -66
62 -160 75 -210 32 -113 85 -521 93 -719 10 -253 -14 -302 -291 -595 -147
-156 -183 -210 -284 -422 -143 -299 -207 -409 -312 -533 l-51 -60 31 -13 c55
-22 138 -41 280 -62 243 -36 313 -70 466 -224 132 -133 228 -272 324 -468 171
-350 214 -636 164 -1108 -13 -120 -18 -252 -18 -420 0 -231 2 -256 32 -435 42
-243 51 -401 28 -513 -28 -141 -63 -204 -225 -406 -157 -197 -189 -260 -235
-471 -100 -449 -242 -733 -490 -980 -108 -108 -180 -164 -511 -401 -478 -341
-728 -503 -1140 -734 -282 -159 -387 -213 -495 -256 -87 -35 -103 -38 -190
-38 -148 -1 -261 44 -544 213 -72 43 -203 120 -291 171 -564 328 -972 685
-1242 1090 -168 251 -330 582 -488 999 -66 173 -265 745 -265 761 0 26 -200
165 -424 295 l-49 29 6 -40 c66 -389 143 -958 177 -1284 76 -752 32 -1120
-133 -1120 -13 0 -47 7 -77 16 -265 79 -475 895 -496 1929 -3 132 -7 274 -10
315 l-6 75 -76 -150 -76 -150 3 -515 c5 -943 -43 -1380 -203 -1845 -122 -357
-268 -631 -615 -1156 -97 -147 -201 -307 -231 -355 -30 -49 -89 -123 -130
-164 -133 -135 -178 -134 -635 5 -116 35 -282 93 -370 128 -159 65 -576 252
-716 323 -184 92 -389 267 -556 474 -47 58 -150 202 -228 320 -166 249 -212
298 -415 442 -306 217 -355 294 -571 908 -59 168 -177 406 -343 690 -229 391
-324 613 -380 878 -79 377 -65 798 33 1008 40 86 87 133 216 219 113 76 205
150 205 165 0 5 -35 32 -78 61 -126 84 -206 153 -422 365 -277 270 -238 243
-655 479 -242 137 -309 208 -416 446 -104 232 -261 642 -293 770 -13 52 -36
184 -51 294 -59 444 -75 486 -348 939 -82 137 -178 308 -213 380 -80 164 -183
475 -226 677 -28 138 -32 172 -32 329 -1 198 9 254 69 377 42 86 121 163 211
205 80 37 266 84 411 103 133 17 429 20 571 4 737 -79 1573 -430 2488 -1044
1331 -894 2680 -2269 3503 -3570 60 -93 127 -203 150 -242 23 -40 43 -73 45
-73 2 0 -12 60 -30 134 -51 208 -52 222 -20 255 15 16 45 37 67 46 21 10 39
23 39 29 0 20 -244 506 -325 646 -171 298 -309 488 -445 610 -161 145 -227
214 -239 253 -10 30 -10 41 -1 52 32 39 109 -2 220 -114 177 -179 410 -554
703 -1131 83 -162 151 -296 153 -298 1 -2 35 4 75 12 41 8 108 18 150 22 l76
7 7 74 c22 236 100 603 183 856 124 379 305 651 502 756 64 34 97 38 126 18
42 -31 -19 -116 -183 -255 -159 -135 -242 -244 -333 -437 -81 -174 -155 -429
-193 -675 -15 -92 -39 -342 -34 -344 98 -36 134 -96 148 -246 4 -47 19 -134
33 -195 14 -60 35 -168 45 -240 21 -142 22 -142 42 40 102 902 517 1997 1160
3060 1040 1720 2564 3190 3602 3475 196 54 414 61 573 20z"/>
<path d="M15061 13146 c-19 -20 -22 -32 -17 -63 4 -21 10 -60 14 -88 9 -62 14
-69 51 -85 45 -18 80 3 114 70 43 84 26 144 -50 176 -49 21 -86 17 -112 -10z"/>
<path d="M15372 12738 c-54 -59 -69 -146 -32 -186 42 -45 140 -18 140 38 0 12
7 32 16 45 21 32 11 89 -19 110 -32 22 -80 19 -105 -7z"/>
<path d="M14965 12375 c-36 -35 -35 -106 1 -142 22 -22 32 -25 67 -20 28 4 49
14 64 32 27 31 29 55 8 95 -32 62 -97 79 -140 35z"/>
<path d="M15782 12277 c-47 -50 -15 -137 49 -137 42 0 65 15 77 50 30 83 -67
150 -126 87z"/>
<path d="M14039 11866 c-88 -31 -134 -74 -264 -246 -44 -58 -166 -193 -271
-300 -105 -107 -196 -205 -203 -217 -6 -12 -11 -42 -11 -67 0 -54 5 -55 85
-27 79 28 145 76 290 211 72 66 183 157 247 201 139 96 229 187 281 287 46 87
48 138 7 159 -32 16 -115 16 -161 -1z"/>
<path d="M14790 11854 c-69 -19 -164 -70 -255 -138 -38 -28 -91 -64 -117 -79
-26 -15 -107 -82 -181 -150 -230 -211 -397 -346 -547 -445 -178 -117 -221
-151 -260 -210 -45 -68 -42 -122 8 -172 73 -73 162 -62 299 37 43 31 165 115
271 187 106 72 243 165 305 207 61 42 200 123 307 179 387 203 520 319 520
456 0 57 -23 98 -70 121 -48 24 -205 28 -280 7z"/>
<path d="M13449 11727 c-19 -12 -57 -58 -85 -102 -77 -119 -115 -157 -240
-240 -121 -81 -176 -136 -224 -226 -32 -60 -36 -88 -20 -120 28 -51 126 -3
335 166 55 45 142 109 193 144 172 118 250 218 239 304 -12 89 -117 128 -198
74z"/>
<path d="M2625 11618 c-35 -19 -55 -52 -55 -91 0 -48 18 -82 72 -134 55 -53
91 -68 126 -51 36 18 43 79 13 119 -12 16 -21 42 -21 59 0 38 -24 77 -61 96
-33 17 -47 17 -74 2z"/>
<path d="M15594 11583 c-59 -11 -71 -74 -36 -173 11 -30 23 -68 26 -83 4 -19
18 -33 41 -44 45 -21 82 -10 105 33 9 18 33 48 53 67 48 45 49 82 6 132 -22
25 -47 39 -88 51 -73 20 -82 22 -107 17z"/>
<path d="M12960 11465 c13 -16 13 -19 -5 -32 -11 -7 -60 -42 -110 -76 -56 -39
-152 -124 -256 -227 -221 -221 -259 -278 -207 -314 77 -54 189 17 323 205 33
46 87 118 120 160 80 98 121 159 145 212 25 54 25 64 -2 78 -21 11 -22 11 -8
-6z"/>
<path d="M15047 11250 c-68 -17 -99 -41 -227 -169 -91 -92 -150 -141 -215
-181 -52 -32 -99 -69 -112 -89 -29 -42 -30 -100 -4 -132 28 -34 118 -32 226 4
101 34 345 153 422 205 183 124 238 274 126 343 -38 24 -155 34 -216 19z"/>
<path d="M2566 11084 c-31 -31 -20 -79 32 -137 75 -85 115 -103 160 -71 48 33
12 129 -73 193 -45 34 -94 40 -119 15z"/>
<path d="M3126 10834 c-78 -77 38 -239 129 -180 36 24 40 56 14 111 -34 72
-106 107 -143 69z"/>
<path d="M16006 10674 c-40 -41 -35 -75 22 -137 62 -68 73 -76 100 -77 34 0
60 17 77 51 22 41 13 62 -53 131 -65 68 -101 76 -146 32z"/>
<path d="M12732 10637 c-33 -19 -252 -335 -252 -364 0 -28 30 -60 64 -69 53
-13 77 7 179 152 127 178 137 195 137 220 0 48 -82 87 -128 61z"/>
<path d="M4769 10541 c-53 -54 -37 -122 48 -202 67 -63 120 -92 301 -164 86
-35 211 -88 277 -118 200 -92 288 -115 315 -82 19 23 4 62 -48 117 -83 89
-174 143 -342 203 -132 47 -167 67 -276 160 -141 121 -216 144 -275 86z"/>
<path d="M4207 10546 c-20 -7 -44 -19 -52 -26 -34 -28 -11 -81 67 -156 115
-111 198 -160 408 -238 69 -26 199 -87 290 -135 184 -98 273 -137 355 -152 89
-16 112 0 81 59 -27 51 -81 91 -298 216 -246 142 -311 183 -458 290 -184 134
-301 176 -393 142z"/>
<path d="M12025 10492 c-20 -4 -199 -126 -242 -165 -34 -30 -32 -89 3 -116 51
-40 82 -27 277 117 51 38 57 47 57 78 0 19 -4 44 -10 54 -11 21 -56 38 -85 32z"/>
<path d="M2454 10465 c-20 -30 -12 -74 22 -114 60 -72 152 -33 130 55 -19 74
-117 112 -152 59z"/>
<path d="M5440 10393 c0 -37 80 -112 257 -241 76 -56 176 -131 223 -167 105
-81 209 -135 260 -135 42 0 90 31 90 59 0 35 -75 92 -287 220 -176 106 -338
187 -453 228 -65 23 -79 31 -74 46 3 9 1 17 -5 17 -6 0 -11 -12 -11 -27z"/>
<path d="M14775 10335 c-217 -35 -343 -70 -485 -136 -92 -43 -445 -228 -658
-346 -558 -307 -890 -600 -1112 -979 -34 -59 -51 -114 -36 -114 3 0 40 11 83
24 75 24 178 52 553 151 372 98 496 143 865 315 132 61 375 170 540 242 165
72 334 148 375 168 96 49 195 131 269 225 82 102 115 174 119 255 4 86 -21
131 -98 174 -53 30 -59 31 -190 33 -80 1 -172 -4 -225 -12z"/>
<path d="M3529 10325 c-73 -20 -126 -54 -145 -94 -33 -69 15 -166 123 -247
104 -78 245 -128 598 -209 191 -44 308 -80 475 -147 69 -28 184 -70 255 -95
72 -25 186 -68 255 -96 101 -41 137 -51 187 -51 52 -1 65 3 87 23 62 58 54
144 -19 216 -56 54 -154 102 -337 164 -151 52 -445 187 -733 336 -88 46 -182
89 -210 96 -27 6 -88 27 -134 46 -167 69 -297 88 -402 58z"/>
<path d="M13603 10239 c-174 -22 -335 -93 -431 -188 -91 -91 -156 -231 -163
-353 -3 -54 5 -68 39 -68 66 1 149 55 331 218 71 63 154 127 199 152 42 24
112 64 156 89 112 65 124 105 44 141 -46 21 -76 22 -175 9z"/>
<path d="M16003 10020 c-32 -13 -43 -41 -43 -112 0 -73 16 -103 59 -113 33 -7
85 15 95 40 14 36 6 142 -11 164 -21 24 -68 35 -100 21z"/>
<path d="M12685 9869 c-171 -22 -340 -79 -503 -171 -279 -159 -458 -335 -682
-668 -94 -140 -410 -657 -509 -833 -172 -306 -371 -705 -466 -937 -26 -63 -80
-185 -121 -270 -40 -85 -78 -180 -84 -210 -11 -58 -5 -146 12 -156 13 -8 167
152 517 536 358 393 514 551 776 785 473 423 559 525 807 960 63 110 163 280
222 378 170 282 259 484 242 551 -11 43 -69 52 -211 35z"/>
<path d="M3011 9780 c-47 -38 -71 -80 -71 -130 0 -32 41 -81 83 -99 23 -10 49
-26 56 -35 19 -22 65 -46 89 -46 27 0 55 35 55 67 -1 43 -33 183 -49 214 -18
36 -61 69 -89 69 -13 0 -46 -18 -74 -40z"/>
<path d="M3689 9629 c-55 -8 -84 -22 -121 -57 -41 -38 -44 -74 -13 -137 62
-128 211 -200 531 -260 179 -33 268 -39 329 -23 80 21 95 71 42 148 -30 46
-81 74 -202 111 -88 27 -144 55 -350 172 -84 47 -136 59 -216 46z"/>
<path d="M5951 9594 c-40 -51 -22 -83 97 -178 45 -36 118 -95 161 -130 91 -74
110 -82 148 -64 36 17 50 57 34 95 -11 25 -263 237 -338 285 -41 26 -78 23
-102 -8z"/>
<path d="M15325 9573 c-104 -9 -264 -38 -400 -73 -233 -59 -425 -132 -929
-354 -291 -128 -461 -191 -891 -332 -198 -64 -396 -132 -440 -151 -322 -138
-610 -387 -1077 -930 -168 -196 -220 -262 -369 -464 -166 -224 -233 -296 -382
-407 -203 -152 -255 -216 -265 -325 l-5 -59 43 7 c74 12 137 39 355 147 236
117 369 172 625 260 401 138 596 237 1207 609 397 242 592 354 808 464 245
125 375 178 739 301 650 221 783 291 1041 549 142 142 241 270 296 381 33 68
39 90 39 144 0 46 -6 72 -20 96 -52 84 -233 150 -375 137z"/>
<path d="M6762 9550 c-27 -25 -28 -65 -4 -105 16 -25 43 -40 151 -83 142 -56
179 -62 204 -34 22 24 22 84 0 111 -18 20 -281 131 -313 131 -9 0 -26 -9 -38
-20z"/>
<path d="M5455 8994 c-80 -12 -122 -27 -152 -57 -39 -37 -41 -56 -10 -83 31
-28 56 -37 208 -79 108 -29 165 -53 294 -119 255 -132 352 -163 391 -124 14
14 13 20 -11 69 -93 184 -240 313 -420 369 -69 21 -232 34 -300 24z"/>
<path d="M6352 8849 c-69 -12 -118 -33 -131 -57 -28 -52 119 -238 370 -472 74
-69 236 -225 361 -347 124 -121 268 -256 320 -299 161 -134 362 -256 708 -429
258 -129 380 -197 745 -415 478 -285 692 -406 775 -435 l43 -15 -6 45 c-11 76
-53 141 -166 259 -58 61 -184 199 -278 306 -289 330 -900 926 -1358 1325 -340
297 -635 456 -972 524 -108 22 -308 27 -411 10z"/>
<path d="M4480 8779 c-197 -22 -356 -77 -399 -137 -43 -62 -47 -139 -10 -213
74 -147 328 -328 534 -379 44 -10 213 -40 375 -65 162 -25 426 -70 585 -100
421 -79 411 -78 942 -79 399 -1 473 1 473 13 0 17 -130 146 -230 227 -130 106
-269 192 -455 284 -289 142 -516 217 -1100 364 -374 94 -500 109 -715 85z"/>
<path d="M3122 8742 c-11 -11 -24 -48 -31 -94 -12 -66 -11 -78 3 -106 17 -33
61 -62 94 -62 31 0 52 33 65 106 16 89 13 107 -29 144 -39 34 -76 38 -102 12z"/>
<path d="M15430 8582 c-19 -10 -48 -26 -63 -36 -32 -22 -77 -93 -77 -124 0
-30 40 -71 77 -78 28 -6 37 -1 81 45 27 28 57 51 66 51 28 0 66 46 66 80 0 69
-75 100 -150 62z"/>
<path d="M14967 8228 c-9 -7 -21 -26 -27 -42 -8 -23 -6 -36 12 -74 30 -60 80
-112 107 -112 31 0 81 52 81 84 0 32 -55 133 -80 146 -26 14 -73 12 -93 -2z"/>
<path d="M3486 8054 c-23 -23 -20 -68 10 -126 36 -71 66 -98 108 -98 37 0 66
27 66 63 0 24 -55 132 -80 157 -24 24 -82 26 -104 4z"/>
<path d="M14194 8060 c-112 -16 -257 -73 -529 -209 -149 -75 -320 -159 -381
-187 -358 -168 -644 -457 -644 -652 0 -28 3 -33 18 -27 135 53 724 238 893
280 371 93 956 309 1138 419 102 63 132 110 107 170 -27 65 -158 135 -340 181
-114 29 -184 36 -262 25z"/>
<path d="M16023 8016 c-25 -21 -27 -29 -25 -82 2 -49 9 -67 45 -121 65 -97
124 -114 182 -53 19 20 29 43 32 74 5 44 4 46 -51 99 -31 30 -56 59 -56 65 0
14 -52 42 -79 42 -11 0 -32 -11 -48 -24z"/>
<path d="M4645 7873 c-160 -9 -329 -40 -395 -74 -51 -25 -119 -94 -141 -142
-47 -105 -8 -208 127 -336 142 -135 454 -327 664 -409 159 -62 361 -92 760
-112 516 -26 708 -65 1475 -301 668 -206 813 -235 1335 -259 217 -10 409 -30
610 -65 93 -17 271 -18 286 -2 4 4 -6 33 -22 64 -49 97 -90 121 -393 231 -46
17 -120 53 -164 79 -74 45 -124 81 -402 292 -123 93 -574 395 -735 492 -320
192 -576 297 -800 328 -41 6 -201 18 -355 26 -448 24 -560 36 -1005 110 -387
64 -659 89 -845 78z"/>
<path d="M15714 7750 c-49 -20 -68 -84 -40 -138 32 -62 98 -94 160 -78 38 9
58 56 47 106 -11 50 -31 73 -85 100 -47 22 -51 23 -82 10z"/>
<path d="M14895 7564 c-11 -2 -45 -9 -75 -15 -110 -22 -586 -185 -1310 -449
-213 -78 -369 -129 -430 -141 -52 -10 -165 -32 -251 -48 -317 -61 -379 -106
-273 -199 103 -92 416 -162 717 -162 126 0 205 15 877 170 576 132 700 158
825 170 350 33 513 87 560 185 40 85 -11 232 -115 334 -107 105 -256 162 -419
160 -47 -1 -95 -3 -106 -5z"/>
<path d="M16355 7455 c-31 -30 -31 -57 -4 -132 15 -40 38 -75 74 -110 62 -63
91 -68 137 -22 28 27 30 34 24 75 -8 63 -33 111 -67 131 -16 10 -29 21 -29 26
0 20 -51 57 -80 57 -19 0 -40 -9 -55 -25z"/>
<path d="M15950 7100 c-42 -42 -36 -103 14 -136 49 -32 116 10 116 73 0 69
-84 109 -130 63z"/>
<path d="M12208 7056 c-37 -13 -127 -55 -200 -94 -73 -38 -196 -93 -273 -122
-77 -29 -223 -86 -325 -127 -101 -41 -272 -107 -380 -145 -447 -162 -647 -270
-638 -345 3 -27 5 -28 53 -27 76 2 210 57 610 249 328 158 375 178 525 220
225 64 360 114 525 195 168 83 304 184 280 208 -3 3 -29 7 -58 9 -37 3 -71 -3
-119 -21z"/>
<path d="M16605 6888 c-26 -15 -44 -39 -45 -60 0 -9 -15 -25 -34 -36 -42 -25
-54 -67 -31 -111 18 -36 47 -45 116 -39 80 8 103 38 107 137 4 75 3 79 -23 99
-31 24 -60 27 -90 10z"/>
<path d="M15490 6803 c-19 -2 -114 -22 -210 -44 -318 -73 -811 -167 -1075
-204 -418 -59 -625 -103 -717 -152 -74 -40 -74 -66 0 -106 161 -87 674 -183
1477 -277 645 -76 818 -79 952 -14 171 82 224 329 116 536 -61 117 -168 205
-291 242 -56 16 -194 27 -252 19z"/>
<path d="M4637 6785 c-26 -25 -30 -58 -13 -99 16 -39 62 -66 110 -66 13 0 37
-11 53 -24 43 -36 69 -40 92 -17 30 30 28 91 -3 128 -56 66 -203 115 -239 78z"/>
<path d="M12000 6644 c-343 -43 -770 -199 -1043 -382 -92 -61 -227 -171 -227
-184 0 -4 10 -8 23 -8 26 0 253 -38 747 -125 903 -159 948 -165 1338 -165 383
0 537 17 650 71 46 23 92 88 92 130 -2 141 -262 323 -721 503 -184 72 -328
117 -452 141 -80 16 -336 28 -407 19z"/>
<path d="M5843 6622 c-58 -21 -174 -111 -232 -181 -108 -130 -111 -246 -6
-295 80 -38 256 -71 525 -97 66 -6 355 -12 675 -14 308 -1 587 -6 619 -10 l59
-8 -7 29 c-21 84 -150 219 -282 294 -160 92 -289 134 -594 194 -69 14 -197 41
-285 61 -204 46 -389 57 -472 27z"/>
<path d="M5166 6558 c-26 -36 -21 -147 7 -189 26 -39 69 -59 95 -43 20 13 36
151 22 189 -24 63 -94 87 -124 43z"/>
<path d="M16565 6270 c-33 -13 -42 -31 -49 -97 -7 -67 8 -115 39 -127 35 -13
76 -6 100 19 22 21 25 33 25 90 0 79 -9 99 -51 114 -37 13 -37 13 -64 1z"/>
<path d="M7695 6210 c-12 -4 -26 -15 -34 -23 -11 -13 -7 -19 26 -41 52 -34
168 -70 294 -92 82 -14 168 -18 404 -20 278 -2 315 -4 505 -33 417 -62 638
-79 703 -52 57 22 8 86 -85 112 -87 23 -277 40 -548 49 -379 13 -841 52 -990
85 -114 25 -236 32 -275 15z"/>
<path d="M10580 6149 c-59 -27 -230 -140 -225 -150 12 -19 83 -19 145 0 90 28
180 109 180 161 0 16 -51 11 -100 -11z"/>
<path d="M4435 6017 c-8 -19 -12 -43 -9 -54 3 -11 -1 -34 -10 -51 -36 -71 0
-166 75 -196 37 -15 44 -15 65 -1 26 17 30 29 39 121 10 108 -47 214 -116 214
-25 0 -33 -6 -44 -33z"/>
<path d="M16053 5960 c-28 -12 -43 -40 -43 -85 0 -48 13 -70 50 -85 24 -10 36
-10 60 0 39 16 50 37 50 94 0 36 -5 48 -26 65 -28 22 -55 25 -91 11z"/>
<path d="M5564 5936 c-124 -29 -218 -101 -273 -208 -39 -80 -55 -161 -48 -263
15 -253 153 -318 492 -230 173 44 190 47 665 90 693 63 699 64 860 145 288
144 479 369 367 432 -34 19 -172 15 -365 -12 -164 -23 -180 -23 -345 -12 -957
69 -1249 82 -1353 58z"/>
<path d="M8350 5919 c-248 -13 -410 -63 -577 -177 -197 -135 -463 -435 -576
-651 -101 -192 -102 -312 -3 -385 40 -30 153 -27 271 9 115 34 458 174 554
227 40 22 216 128 390 235 299 184 782 474 899 540 l54 30 -86 36 c-257 108
-579 155 -926 136z"/>
<path d="M10875 5914 c-11 -3 -37 -10 -58 -15 -173 -45 -59 -213 336 -496 83
-59 198 -147 256 -196 58 -49 171 -139 251 -200 549 -420 571 -440 943 -860
822 -928 892 -999 1123 -1135 171 -102 350 -136 469 -91 130 49 208 170 208
324 0 145 -53 285 -182 477 -113 167 -193 261 -410 479 -423 424 -1096 959
-1531 1219 -398 238 -1031 478 -1303 494 -45 3 -91 3 -102 0z"/>
<path d="M4820 5838 c-11 -18 -22 -45 -25 -60 -9 -37 21 -124 48 -143 55 -38
116 0 124 79 7 58 -1 87 -33 125 -37 44 -87 44 -114 -1z"/>
<path d="M9376 5851 c-12 -19 56 -78 105 -92 63 -18 151 -15 199 6 22 10 39
23 37 29 -10 31 -325 84 -341 57z"/>
<path d="M10254 5838 c3 -13 8 -52 11 -88 8 -92 55 -364 63 -372 13 -12 403
-210 407 -207 7 8 -104 249 -151 328 -70 118 -160 229 -245 300 -40 33 -76 61
-81 61 -5 0 -6 -10 -4 -22z"/>
<path d="M13916 5840 c-106 -12 -183 -36 -196 -60 -25 -46 50 -122 250 -255
300 -199 882 -497 1235 -632 215 -82 314 -98 430 -68 87 23 140 53 191 107 67
72 87 124 92 240 8 180 -43 325 -152 433 -141 140 -303 184 -821 221 -255 18
-914 27 -1029 14z"/>
<path d="M16560 5622 c-81 -78 -81 -98 -2 -218 106 -162 153 -193 216 -143 35
28 34 61 -8 199 -19 62 -32 118 -29 125 6 18 -23 72 -46 85 -42 22 -70 12
-131 -48z"/>
<path d="M12594 5608 c24 -124 389 -487 1001 -998 469 -391 906 -716 1013
-754 58 -21 222 -47 305 -49 237 -5 343 127 288 363 -18 78 -101 243 -163 325
-84 111 -168 169 -768 526 -526 314 -873 466 -1285 562 -121 29 -301 57 -360
57 -37 0 -37 0 -31 -32z"/>
<path d="M9260 5541 c-124 -25 -320 -165 -569 -406 -146 -142 -284 -297 -373
-421 -367 -511 -721 -1392 -844 -2099 -24 -138 -28 -187 -29 -360 0 -180 2
-208 23 -280 88 -304 288 -356 451 -116 104 152 146 266 287 771 182 648 292
1013 351 1165 51 128 146 316 293 575 70 124 154 275 186 335 32 61 95 167
140 236 231 355 303 535 235 590 -24 20 -81 24 -151 10z"/>
<path d="M10750 5541 c0 -6 9 -58 21 -117 39 -202 120 -408 221 -557 81 -121
161 -208 515 -563 354 -354 435 -442 568 -619 98 -130 347 -508 542 -823 93
-151 188 -295 211 -322 57 -66 173 -141 263 -170 185 -61 440 4 532 137 58 82
34 209 -66 359 -75 111 -157 196 -845 875 -697 687 -796 779 -960 890 -216
147 -424 348 -638 615 -109 135 -177 203 -273 272 -42 31 -91 43 -91 23z"/>
<path d="M9741 5485 c-34 -91 -59 -191 -76 -300 -20 -136 -20 -138 20 -72 20
33 54 85 76 118 l40 59 -12 112 c-15 146 -21 156 -48 83z"/>
<path d="M4450 5370 c-14 -14 -20 -32 -18 -53 1 -18 -4 -42 -10 -54 -16 -29
-15 -59 3 -120 19 -65 57 -103 101 -103 39 0 50 16 64 87 6 31 5 75 -2 123 -9
64 -16 80 -44 108 -37 37 -65 41 -94 12z"/>
<path d="M9453 5207 c-48 -55 -118 -204 -168 -357 -104 -320 -212 -565 -331
-750 -144 -226 -175 -296 -415 -936 -176 -469 -337 -942 -389 -1140 -93 -355
-51 -547 125 -584 160 -33 307 57 395 243 44 92 52 124 110 492 52 328 120
675 170 875 67 267 130 435 334 893 186 417 231 548 256 751 14 110 8 325 -13
461 -14 93 -29 104 -74 52z"/>
<path d="M6835 5218 c-44 -4 -190 -31 -325 -58 -257 -52 -570 -99 -830 -125
-85 -8 -176 -20 -203 -25 -113 -23 -215 -109 -259 -218 -19 -48 -22 -75 -22
-177 0 -102 4 -132 27 -201 44 -132 131 -249 222 -297 84 -45 209 -18 380 80
120 69 762 497 905 603 292 217 415 350 368 397 -32 31 -113 38 -263 21z"/>
<path d="M4932 5148 c-16 -16 -15 -73 3 -107 30 -59 107 -62 121 -5 8 30 -21
101 -47 115 -24 13 -63 11 -77 -3z"/>
<path d="M16406 4967 c-20 -15 -55 -168 -55 -248 -1 -57 28 -89 81 -89 43 0
54 12 107 115 23 44 50 96 61 115 24 40 20 76 -12 103 -25 21 -154 24 -182 4z"/>
<path d="M7874 4713 c-287 -167 -557 -459 -771 -833 -98 -171 -326 -627 -370
-740 -63 -161 -78 -324 -48 -521 41 -276 157 -388 310 -300 28 16 78 54 111
85 52 47 71 74 117 169 227 467 604 1461 708 1869 32 127 50 300 32 311 -5 4
-45 -15 -89 -40z"/>
<path d="M4550 4720 c-27 -27 -25 -50 9 -119 41 -80 83 -115 133 -108 62 8 88
31 88 76 0 46 -40 101 -72 101 -11 0 -38 16 -59 35 -44 40 -70 44 -99 15z"/>
<path d="M6995 4564 c-176 -41 -372 -127 -685 -302 -325 -181 -432 -267 -498
-400 l-37 -76 0 -141 c1 -126 4 -148 29 -225 59 -177 129 -281 227 -335 69
-38 161 -41 225 -8 81 43 225 225 416 528 307 485 480 864 429 943 -9 14 -72
24 -106 16z"/>
<path d="M11147 4494 c-14 -14 -6 -131 13 -201 50 -180 316 -708 445 -882 50
-69 212 -222 376 -358 80 -66 174 -146 210 -178 117 -105 190 -145 291 -160
39 -6 49 -4 54 9 14 37 -108 240 -289 480 -252 335 -756 941 -1017 1221 -71
77 -73 79 -83 69z"/>
<path d="M16102 4317 c-24 -26 -27 -48 -12 -77 9 -16 4 -26 -31 -57 -51 -46
-79 -103 -79 -163 0 -49 27 -116 54 -139 26 -21 75 -17 132 12 102 52 138 107
138 212 0 56 -6 82 -28 130 -38 84 -60 105 -111 105 -30 0 -47 -6 -63 -23z"/>
<path d="M4877 4132 c-25 -27 -21 -63 13 -128 47 -91 95 -118 133 -76 25 27
21 65 -13 132 -43 86 -95 114 -133 72z"/>
<path d="M9466 4103 c-23 -46 -139 -371 -235 -663 -212 -645 -344 -1133 -358
-1322 -7 -96 -4 -99 46 -73 57 29 118 113 198 273 44 86 124 245 179 352 55
107 110 226 122 263 24 72 68 320 99 547 25 188 26 558 1 613 -20 44 -33 47
-52 10z"/>
<path d="M5382 3998 c-28 -28 3 -146 43 -162 89 -34 118 69 42 152 -22 24 -66
29 -85 10z"/>
<path d="M15374 3890 c-33 -13 -74 -69 -74 -100 0 -47 31 -75 83 -75 53 0 81
21 98 72 24 73 -37 132 -107 103z"/>
<path d="M14766 3589 c-24 -19 -26 -26 -26 -100 0 -71 3 -82 25 -104 32 -33
84 -34 111 -2 11 12 28 41 38 64 15 34 16 47 7 75 -28 82 -97 112 -155 67z"/>
<path d="M15773 3577 c-65 -18 -80 -40 -93 -132 -25 -180 -25 -170 5 -193 53
-42 109 -22 147 51 30 60 68 176 68 209 0 27 -30 68 -49 68 -5 0 -15 2 -23 4
-7 2 -32 -1 -55 -7z"/>
<path d="M5121 3541 c-24 -24 -28 -77 -8 -106 8 -11 26 -78 42 -148 32 -142
52 -177 103 -177 50 0 57 19 60 179 2 105 -1 153 -10 170 -13 24 -100 82 -145
95 -15 5 -28 1 -42 -13z"/>
<path d="M5536 2932 c-38 -23 -51 -60 -34 -100 7 -17 59 -74 116 -127 88 -83
105 -94 122 -85 58 31 49 78 -43 225 -59 93 -65 100 -97 102 -19 1 -48 -6 -64
-15z"/>
<path d="M14784 2836 c-30 -21 -94 -150 -94 -189 0 -38 28 -74 66 -83 62 -16
223 65 245 124 8 20 6 35 -7 64 -25 56 -54 77 -120 88 -73 12 -66 13 -90 -4z"/>
<path d="M14043 2740 c-50 -20 -60 -105 -17 -139 15 -12 37 -21 49 -21 12 0
34 9 49 21 21 16 26 29 26 63 0 62 -52 99 -107 76z"/>
<path d="M14085 2444 c-14 -15 -25 -37 -25 -48 0 -12 -5 -27 -11 -33 -6 -6
-13 -50 -15 -97 -4 -76 -2 -88 16 -106 11 -11 30 -20 43 -20 12 0 39 -3 60 -6
35 -6 40 -4 78 37 56 61 72 95 66 140 -6 47 -37 92 -90 130 -51 37 -90 38
-122 3z"/>
<path d="M6014 2414 c-15 -23 -16 -35 -6 -111 24 -179 114 -292 234 -293 48 0
62 24 55 95 -9 92 -65 178 -139 216 -30 15 -38 25 -38 47 0 34 -37 72 -68 72
-12 0 -29 -11 -38 -26z"/>
<path d="M6652 2238 c-20 -20 -14 -82 11 -119 40 -60 107 -49 107 18 0 79 -75
144 -118 101z"/>
<path d="M7099 2149 c-14 -14 -19 -33 -19 -73 0 -45 6 -62 33 -102 52 -75 107
-69 107 11 0 34 -33 140 -50 160 -19 23 -50 25 -71 4z"/>
<path d="M13402 2117 c-28 -30 -29 -87 -2 -112 10 -9 63 -33 116 -51 84 -29
100 -32 122 -21 49 23 64 79 34 125 -11 17 -187 82 -222 82 -15 0 -36 -10 -48
-23z"/>
<path d="M6527 1822 c-32 -35 -21 -75 46 -173 69 -104 103 -135 136 -124 36
11 28 73 -25 184 -26 53 -53 104 -62 114 -20 23 -74 22 -95 -1z"/>
<path d="M7810 1570 c-31 -31 -23 -95 15 -133 21 -22 31 -21 55 3 41 41 8 150
-46 150 -2 0 -13 -9 -24 -20z"/>
<path d="M7322 1421 c-29 -27 -32 -35 -32 -91 0 -75 10 -94 60 -120 43 -22 91
-26 120 -10 27 14 35 69 17 111 -21 49 -96 139 -116 139 -9 0 -31 -13 -49 -29z"/>
<path d="M7846 1288 c-24 -34 -39 -120 -31 -174 6 -41 15 -56 52 -91 25 -24
52 -43 60 -43 25 0 70 38 77 64 7 29 -29 145 -63 201 -41 68 -69 81 -95 43z"/>
<path d="M8346 1173 c-69 -76 -81 -95 -80 -137 1 -30 8 -46 28 -63 34 -29 41
-25 112 56 61 70 69 109 33 155 -28 36 -52 33 -93 -11z"/>
</g>
</svg>
